# xmcd
#
# Track frame offsets:
#	150
#	6699
#	12305
#	18056
#	23663
#	29172
#	34787
#	51908
#	58430
#	65315
#	73016
#	79348
#	84374
#	91211
#	102336
#	108926
#	114884
#	121061
#	128880
#	136289
#	142188
#	149857
#	156445
#	165028
#	174794
#	181661
#
# Disc length: 2712 seconds
#
# Revision: 1
# Processed by: cddbd v1.5.2PL0 Copyright (c) Steve Scherf et al.
# Submitted via: EasyCDDAExtractor 5.1.0
#
DISCID=600a961a
DTITLE=Les Galvachers - Cd1
DYEAR=2008
DGENRE=Folklore
TTITLE0=Bourrée à deux droite
TTITLE1=Branle de la chèvre
TTITLE2=Scottish valsée
TTITLE3=Polka du Rétameur
TTITLE4=Réveillez-vous la belle (Marche)
TTITLE5=Mazurka sautée
TTITLE6=Valse du "Meûlé"
TTITLE7=Bourrée à quatre tournée
TTITLE8=Marche des conscrits
TTITLE9=Scottish
TTITLE10=Polka sautée
TTITLE11=La petite bergère (berceuse)
TTITLE12=Patinée
TTITLE13=Le P'tit Gars de Vermenoux (Chant)
TTITLE14=Bourrée à trois
TTITLE15=Branle des vieux
TTITLE16=Scottish double
TTITLE17=Polka du Tienne de la Barrée
TTITLE18=Quand j'étais au régiment (Marche)
TTITLE19=Cotillon Vert
TTITLE20=Mazurka dela "Croix des Cerisiers"
TTITLE21=Valse du "P'tit Bo"
TTITLE22=Bourrée Croisée
TTITLE23=Polka de Montignon
TTITLE24=Bourrée à deux à Glux
TTITLE25=Quadrille
EXTD=
EXTT0=
EXTT1=
EXTT2=
EXTT3=
EXTT4=
EXTT5=
EXTT6=
EXTT7=
EXTT8=
EXTT9=
EXTT10=
EXTT11=
EXTT12=
EXTT13=
EXTT14=
EXTT15=
EXTT16=
EXTT17=
EXTT18=
EXTT19=
EXTT20=
EXTT21=
EXTT22=
EXTT23=
EXTT24=
EXTT25=
PLAYORDER=
